<svg xmlns="http://www.w3.org/2000/svg" viewBox="0 0 240 240" role="img" aria-label="Ada mascot">
  <defs>
    <linearGradient id="sky" x1="0" x2="1" y1="0" y2="1">
      <stop offset="0" stop-color="#e9f7ff"/>
      <stop offset="1" stop-color="#bfe5ff"/>
    </linearGradient>
    <linearGradient id="hair" x1="0" x2="1" y1="0" y2="1">
      <stop offset="0" stop-color="#2a2b35"/>
      <stop offset="1" stop-color="#0d1018"/>
    </linearGradient>
    <radialGradient id="eye" cx="46%" cy="32%" r="66%">
      <stop offset="0" stop-color="#ffffff"/>
      <stop offset="0.22" stop-color="#7dc8ff"/>
      <stop offset="0.7" stop-color="#1b65c7"/>
      <stop offset="1" stop-color="#112a65"/>
    </radialGradient>
  </defs>
  <rect width="240" height="240" rx="32" fill="url(#sky)"/>
  <path d="M206 18c-19 13-34 30-44 51 24-4 44-17 59-39 4-6-8-17-15-12z" fill="#ffffff" opacity=".75"/>
  <path d="M38 41c-17 11-27 26-31 45 19-2 36-13 50-32 4-6-12-18-19-13z" fill="#ffffff" opacity=".72"/>

  <path d="M65 173c-18 16-29 35-33 58h176c-5-27-18-48-39-62-27 16-73 16-104 4z" fill="#ffffff"/>
  <path d="M72 178c22 15 73 14 96-1" fill="none" stroke="#cbd6e4" stroke-width="7" stroke-linecap="round"/>
  <path d="M108 181l12 24 13-24" fill="none" stroke="#1d1f28" stroke-width="5" stroke-linecap="round" stroke-linejoin="round"/>
  <path d="M87 201c-14 7-28 8-42 4" fill="none" stroke="#dbe3ef" stroke-width="8" stroke-linecap="round"/>
  <path d="M153 201c14 7 28 8 42 4" fill="none" stroke="#dbe3ef" stroke-width="8" stroke-linecap="round"/>

  <path d="M55 105c-19 12-27 32-20 50 6 17 22 24 42 19l-3-68z" fill="url(#hair)"/>
  <path d="M185 105c19 12 27 32 20 50-6 17-22 24-42 19l3-68z" fill="url(#hair)"/>
  <path d="M42 94c1-43 31-75 78-75s78 32 78 75c0 51-34 89-78 89s-78-38-78-89z" fill="#ffedf2"/>
  <path d="M45 96c-8-50 28-83 75-83 52 0 86 37 75 87-9-17-24-29-43-37-21-8-42-9-65-3-17 5-31 17-42 36z" fill="url(#hair)"/>
  <path d="M58 82c18-26 39-43 66-51-5 22-18 40-39 54 20-9 42-21 61-44-1 26-10 45-27 57 18-7 32-18 43-35 13 15 21 33 24 54-33-22-74-28-128-35z" fill="#161a24"/>
  <path d="M71 55c-3 36-9 62-20 78" fill="none" stroke="#373b46" stroke-width="5" stroke-linecap="round" opacity=".65"/>
  <path d="M170 55c1 32 7 58 18 78" fill="none" stroke="#373b46" stroke-width="5" stroke-linecap="round" opacity=".65"/>

  <ellipse cx="83" cy="119" rx="18" ry="23" fill="url(#eye)"/>
  <ellipse cx="157" cy="119" rx="18" ry="23" fill="url(#eye)"/>
  <circle cx="76" cy="110" r="6" fill="#ffffff"/>
  <circle cx="150" cy="110" r="6" fill="#ffffff"/>
  <circle cx="91" cy="130" r="4" fill="#78d6ff" opacity=".9"/>
  <circle cx="165" cy="130" r="4" fill="#78d6ff" opacity=".9"/>
  <path d="M110 139c5 5 15 5 20 0" fill="none" stroke="#26212a" stroke-width="5" stroke-linecap="round"/>
  <ellipse cx="65" cy="142" rx="15" ry="7" fill="#ff9dbc" opacity=".42"/>
  <ellipse cx="175" cy="142" rx="15" ry="7" fill="#ff9dbc" opacity=".42"/>

  <path d="M50 137c-25-6-35-20-27-36 7-13 20-12 31 4" fill="#ffedf2"/>
  <path d="M38 105c-10-25-20-44-31-59" fill="none" stroke="#ffffff" stroke-width="14" stroke-linecap="round"/>
  <path d="M38 105c-10-25-20-44-31-59" fill="none" stroke="#1e2330" stroke-width="5" stroke-linecap="round"/>
  <path d="M13 67l22 10" fill="none" stroke="#1e2330" stroke-width="5" stroke-linecap="round"/>

  <path d="M70 189c-17 8-31 22-42 42" fill="none" stroke="#ffffff" stroke-width="20" stroke-linecap="round"/>
  <path d="M70 189c-17 8-31 22-42 42" fill="none" stroke="#d8e0ec" stroke-width="7" stroke-linecap="round"/>
  <path d="M192 168c15 13 25 34 30 63" fill="none" stroke="#ffffff" stroke-width="20" stroke-linecap="round"/>
  <path d="M192 168c15 13 25 34 30 63" fill="none" stroke="#d8e0ec" stroke-width="7" stroke-linecap="round"/>
  <path d="M132 192c7 8 15 13 25 15" fill="none" stroke="#1d1f28" stroke-width="5" stroke-linecap="round"/>
  <path d="M108 192c-7 8-15 13-25 15" fill="none" stroke="#1d1f28" stroke-width="5" stroke-linecap="round"/>

  <rect x="4" y="4" width="232" height="232" rx="30" fill="none" stroke="#ffffff" stroke-width="8" opacity=".75"/>
</svg>
